<?xml version="1.0" encoding="utf-8"?>
<!-- Generator: Adobe Illustrator 24.0.0, SVG Export Plug-In . SVG Version: 6.00 Build 0)  -->
<svg version="1.1" id="Layer_1" xmlns="http://www.w3.org/2000/svg" xmlns:xlink="http://www.w3.org/1999/xlink" x="0px" y="0px"
	 viewBox="0 0 456.8 198.2" style="enable-background:new 0 0 456.8 198.2;" xml:space="preserve">
<style type="text/css">
	.st0{enable-background:new    ;}
</style>
<title>roltek-fast-logo-white</title>
<g class="st0">
	<path d="M21.3,156.6H5.5V51.4h45.1v15.9H21.3v28.7h21.4V112H21.3V156.6z"/>
</g>
<g class="st0">
	<path d="M68.6,132.5l-3.9,24.2H48.2L66.1,51.5h21.8l17.6,105.1H88.9l-3.7-24.2H68.6z M76.9,75.6L71.1,117h11.7L76.9,75.6z"/>
</g>
<g class="st0">
	<path d="M166.5,130.5c0.1,7.3-1.8,13.6-5.7,18.8c-2.6,3.5-6.2,6-10.9,7.5c-2.5,0.8-5.5,1.2-8.8,1.2c-6.2,0-11.4-1.5-15.4-4.6
		c-3.4-2.5-6.1-5.9-8.1-10.3c-2-4.3-3.1-9.3-3.5-14.9l15.1-1.1c0.7,6.1,2.3,10.6,4.9,13.3c1.9,2.1,4.1,3.1,6.5,3
		c3.5-0.1,6.2-1.8,8.3-5.1c1.1-1.6,1.6-3.9,1.6-7c0-4.4-2-8.7-6-13c-3.1-3-7.8-7.4-14.1-13.4c-5.3-5.1-9-9.7-11.2-13.7
		c-2.3-4.5-3.5-9.5-3.5-14.8c0-9.6,3.2-16.8,9.6-21.7c4-3,8.9-4.5,14.8-4.5c5.6,0,10.5,1.3,14.5,3.8c3.1,2,5.7,4.7,7.6,8.2
		s3.1,7.6,3.5,12.2l-15.2,2.8c-0.4-4.3-1.7-7.7-3.7-10.1c-1.5-1.7-3.6-2.6-6.3-2.6c-2.9,0-5.1,1.3-6.6,3.9c-1.2,2.1-1.8,4.6-1.8,7.7
		c0,4.8,2.1,9.7,6.2,14.7c1.6,1.9,3.9,4.1,7,6.7c3.7,3.1,6.1,5.2,7.3,6.5c3.9,3.9,6.9,7.8,9.1,11.6c1,1.8,1.8,3.4,2.4,4.9
		C165.7,124.1,166.5,127.5,166.5,130.5z"/>
	<path d="M194.3,67.4h-16.9V51.5h49.5v15.9h-16.8v89.2h-15.9V67.4z"/>
</g>
<g class="st0">
	<path d="M229.1,156.9h-5.5v-36.4h5.5V156.9z"/>
</g>
<g class="st0">
	<path d="M242.6,120.1c2.4,0,4.5,0.9,6.2,2.6s2.5,3.8,2.5,6.2v19.8c0,2.4-0.9,4.5-2.6,6.2c-1.7,1.7-3.8,2.5-6.2,2.5
		c-2.4,0-4.5-0.9-6.2-2.6c-1.7-1.7-2.5-3.8-2.5-6.2v-19.8c0-2.4,0.9-4.5,2.6-6.2C238.2,120.9,240.2,120.1,242.6,120.1z M245.6,128.7
		c0-0.9-0.3-1.6-0.9-2.2s-1.3-0.9-2.2-0.9c-0.9,0-1.6,0.3-2.2,0.9s-0.9,1.3-0.9,2.2v19.9c0,0.9,0.3,1.6,0.9,2.2s1.4,0.9,2.2,0.9
		c0.9,0,1.6-0.3,2.2-0.9s0.9-1.3,0.9-2.2V128.7z"/>
	<path d="M260.9,126.1h-5.8v-5.5h17.1v5.5h-5.8v30.8h-5.5V126.1z"/>
</g>
<g class="st0">
	<path d="M288.4,120.6c2.7,0,4.8,0.8,6.4,2.5c1.5,1.6,2.2,3.7,2.2,6.2v5.3c0,2.4-0.8,4.4-2.5,6.2c-1.7,1.7-3.7,2.6-6.1,2.6h-3.2
		v13.7h-5.5v-36.4H288.4z M291.7,129.3c0-0.9-0.3-1.7-0.9-2.3s-1.3-0.9-2.3-0.9h-3.3v11.6h3.3c0.9,0,1.6-0.3,2.2-0.9
		c0.6-0.6,0.9-1.4,0.9-2.2V129.3z"/>
</g>
<g class="st0">
	<path d="M316.3,156.9h-14.9v-36.4h5.5v30.9h9.5V156.9z"/>
</g>
<g class="st0">
	<path d="M327.1,148.6l-1.3,8.4h-5.7l6.2-36.4h7.5l6.1,36.4h-5.8l-1.3-8.4H327.1z M330,128.9l-2,14.3h4.1L330,128.9z"/>
</g>
<g class="st0">
	<path d="M345.2,126.1h-5.8v-5.5h17.1v5.5h-5.8v30.8h-5.5V126.1z"/>
</g>
<g class="st0">
	<path d="M366.4,156.9H361v-36.4h15.6v5.5h-10.1v9.9h7.4v5.5h-7.4V156.9z"/>
</g>
<g class="st0">
	<path d="M389,120.1c2.4,0,4.5,0.9,6.2,2.6s2.5,3.8,2.5,6.2v19.8c0,2.4-0.9,4.5-2.6,6.2c-1.7,1.7-3.8,2.5-6.2,2.5
		c-2.4,0-4.5-0.9-6.2-2.6c-1.7-1.7-2.5-3.8-2.5-6.2v-19.8c0-2.4,0.9-4.5,2.6-6.2C384.6,120.9,386.6,120.1,389,120.1z M392,128.7
		c0-0.9-0.3-1.6-0.9-2.2c-0.6-0.6-1.3-0.9-2.2-0.9c-0.9,0-1.6,0.3-2.2,0.9s-0.9,1.3-0.9,2.2v19.9c0,0.9,0.3,1.6,0.9,2.2
		s1.4,0.9,2.2,0.9c0.9,0,1.6-0.3,2.2-0.9c0.6-0.6,0.9-1.3,0.9-2.2V128.7z"/>
</g>
<g class="st0">
	<path d="M411.2,120.6c3.1,0,5.3,0.8,6.7,2.5c1.3,1.5,1.9,3.5,1.9,6.2v5.3c0,2.6-1,4.7-2.9,6.5l4.1,15.9H415l-3.3-13.7
		c-0.2,0-0.3,0-0.5,0h-3.2v13.7h-5.5v-36.4H411.2z M414.5,129.3c0-2.1-1-3.2-3.1-3.2h-3.3v11.6h3.3c0.9,0,1.6-0.3,2.2-0.9
		c0.6-0.6,0.9-1.4,0.9-2.2V129.3z"/>
</g>
<g class="st0">
	<path d="M431.2,156.9h-5.5v-36.4h7.9l5.1,26.1l4.9-26.1h7.6v36.4h-5.5v-22.9l-4.8,22.9h-4.4l-5.3-22.8V156.9z"/>
</g>
</svg>
